<?xml version="1.0" encoding="UTF-8" standalone="no"?>
<!-- Created with Inkscape (http://www.inkscape.org/) -->
<svg xmlns:dc="http://purl.org/dc/elements/1.1/" xmlns:cc="http://creativecommons.org/ns#" xmlns:rdf="http://www.w3.org/1999/02/22-rdf-syntax-ns#" xmlns:svg="http://www.w3.org/2000/svg" xmlns="http://www.w3.org/2000/svg" xmlns:sodipodi="http://sodipodi.sourceforge.net/DTD/sodipodi-0.dtd" xmlns:inkscape="http://www.inkscape.org/namespaces/inkscape" width="850" height="950" id="svg5005" version="1.1" inkscape:version="0.48.4 r9939" sodipodi:docname="InternalDemocracyGuidelineFlagsEN.svg">
  <defs id="defs5007"/>
  <sodipodi:namedview id="base" pagecolor="#ffffff" bordercolor="#666666" borderopacity="1.0" inkscape:pageopacity="0.0" inkscape:pageshadow="2" inkscape:zoom="0.35" inkscape:cx="325" inkscape:cy="520" inkscape:document-units="px" inkscape:current-layer="layer1" showgrid="false" showborder="false" inkscape:window-width="1278" inkscape:window-height="748" inkscape:window-x="0" inkscape:window-y="1" inkscape:window-maximized="1"/>
  <metadata id="metadata5010">
    <rdf:RDF>
      <cc:Work rdf:about="">
        <dc:format>image/svg+xml</dc:format>
        <dc:type rdf:resource="http://purl.org/dc/dcmitype/StillImage"/>
        <dc:title/>
        <cc:license rdf:resource="http://creativecommons.org/licenses/publicdomain/"/>
      </cc:Work>
      <cc:License rdf:about="http://creativecommons.org/licenses/publicdomain/">
        <cc:permits rdf:resource="http://creativecommons.org/ns#Reproduction"/>
        <cc:permits rdf:resource="http://creativecommons.org/ns#Distribution"/>
        <cc:permits rdf:resource="http://creativecommons.org/ns#DerivativeWorks"/>
      </cc:License>
    </rdf:RDF>
  </metadata>
  <g inkscape:label="Calque 1" inkscape:groupmode="layer" id="layer1" transform="translate(0,-102.36215)">
    <g id="g4904" transform="translate(41.94889,109.92825)">
      <path style="fill:#32292f;fill-opacity:1;stroke:none" d="m 390.31339,23.425967 c -53.72857,0.16985 -102.57335,45.41964 -106.7104,99.008533 -4.64543,45.72891 21.86052,92.99866 64.37363,111.07214 39.92508,18.04198 90.53085,10.01792 121.55011,-21.33847 30.92277,-29.7073 42.42888,-78.54294 26.05865,-118.630383 -16.30681,-42.14734 -59.59281,-72.15667 -105.27199,-70.11182 z" id="path4183" inkscape:connector-curvature="0"/>
      <path id="path4187" d="m 393.05112,29.643424 c -57.16654,0 -103.49851,46.36483 -103.49851,103.531286 0,57.16642 46.33197,103.49851 103.49851,103.49851 57.16654,0 103.49851,-46.33209 103.49851,-103.49851 0,-57.166456 -46.33197,-103.531286 -103.49851,-103.531286 z m -44.70288,19.04135 10.06145,0 0,16.09177 c 36.29713,-7.52165 108.67895,-7.91951 109.06979,54.829946 0.25316,44.30186 -78.25856,37.53687 -101.00767,51.91313 -24.75006,15.59535 -13.63364,48.603 -13.63364,48.603 0,0 -14.95588,-30.92104 -4.48993,-51.09378 l 0,-96.747186 c -4.30158,-0.27602 -7.9057,-0.0116 -10.1598,0.65547 -0.64423,-1.40312 3.32805,-3.56684 10.1598,-5.63703 l 0,-18.61532 z m 10.06145,25.13722 0,84.424376 c 10.62677,-7.22263 28.86072,-15.93312 32.38015,-32.60956 7.08444,-33.536926 -14.23159,-47.444426 -32.38015,-51.814816 z" style="fill:#fdfdfb;fill-opacity:1" inkscape:connector-curvature="0"/>
    </g>
    <g id="g4899" transform="translate(55.636831,162.0566)">
      <path inkscape:connector-curvature="0" id="path4724" d="M 103.43007,338.57326 C 49.701499,338.74311 0.85671892,383.9929 -3.2803311,437.58179 c -4.64543,45.72891 21.8605201,92.99866 64.3736301,111.07214 39.925081,18.04198 90.530851,10.01792 121.550111,-21.33847 30.92277,-29.7073 42.42888,-78.54294 26.05865,-118.63038 -16.30681,-42.14734 -59.59281,-72.15667 -105.27199,-70.11182 z" style="fill:#32292f;fill-opacity:1;stroke:none"/>
      <path transform="matrix(0.89184641,0,0,0.89184641,393.44831,628.7792)" d="m -210.11172,-201.23712 c 0,61.92599 -50.20093,112.126929 -112.12693,112.126929 -61.92599,0 -112.12693,-50.200939 -112.12693,-112.126929 0,-61.926 50.20094,-112.12693 112.12693,-112.12693 61.926,0 112.12693,50.20093 112.12693,112.12693 z" sodipodi:ry="112.12693" sodipodi:rx="112.12693" sodipodi:cy="-201.23712" sodipodi:cx="-322.23865" id="path4195" style="fill:#ff6600;fill-opacity:1;fill-rule:evenodd;stroke:none" sodipodi:type="arc"/>
      <path inkscape:connector-curvature="0" style="fill:#f9f9f9;fill-opacity:1" d="m 106.15022,344.81103 c -57.16654,0 -103.4985101,46.36483 -103.4985101,103.53127 0,57.16642 46.3319701,103.49851 103.4985101,103.49851 57.16655,0 103.49852,-46.33209 103.49852,-103.49851 0,-57.16644 -46.33197,-103.53127 -103.49852,-103.53127 z m -44.70288,19.04135 10.06145,0 0,16.09177 c 36.29713,-7.52165 108.67896,-7.91951 109.0698,54.82993 0.25316,44.30186 -78.25857,37.53687 -101.007681,51.91313 -24.750059,15.59535 -13.633639,48.603 -13.633639,48.603 0,0 -14.95588,-30.92104 -4.48993,-51.09378 l 0,-96.74717 c -4.30158,-0.27602 -7.9057,-0.0116 -10.1598,0.65547 -0.64423,-1.40312 3.32805,-3.56684 10.1598,-5.63703 l 0,-18.61532 z m 10.06145,25.13722 0,84.42436 c 10.626769,-7.22263 28.86072,-15.93312 32.38015,-32.60956 7.08444,-33.53691 -14.231591,-47.44441 -32.38015,-51.8148 z" id="path4185"/>
    </g>
    <g id="g4889" transform="translate(53.16234,162.07125)">
      <path inkscape:connector-curvature="0" id="path4724-7" d="m 379.09993,338.55862 c -53.72856,0.16985 -102.57334,45.41964 -106.71039,99.00853 -4.64543,45.7289 21.86052,92.99865 64.37363,111.07213 39.92507,18.04198 90.53084,10.01792 121.5501,-21.33847 30.92277,-29.7073 42.42888,-78.54294 26.05865,-118.63037 -16.30681,-42.14734 -59.59281,-72.15667 -105.27199,-70.11182 z" style="fill:#32292f;fill-opacity:1;stroke:none"/>
      <path transform="matrix(0.89184641,0,0,0.89184641,669.11817,628.76455)" d="m -210.11172,-201.23712 c 0,61.92599 -50.20093,112.126929 -112.12693,112.126929 -61.92599,0 -112.12693,-50.200939 -112.12693,-112.126929 0,-61.926 50.20094,-112.12693 112.12693,-112.12693 61.926,0 112.12693,50.20093 112.12693,112.12693 z" sodipodi:ry="112.12693" sodipodi:rx="112.12693" sodipodi:cy="-201.23712" sodipodi:cx="-322.23865" id="path4195-7" style="fill:#1ebf23;fill-opacity:1;fill-rule:evenodd;stroke:none" sodipodi:type="arc"/>
      <path inkscape:connector-curvature="0" style="fill:#f9f9f9;fill-opacity:1" d="m 381.82008,344.79639 c -57.16653,0 -103.4985,46.36483 -103.4985,103.53126 0,57.16642 46.33197,103.49851 103.4985,103.49851 57.16655,0 103.49852,-46.33209 103.49852,-103.49851 0,-57.16643 -46.33197,-103.53126 -103.49852,-103.53126 z m -44.70287,19.04135 10.06145,0 0,16.09177 c 36.29712,-7.52165 108.67895,-7.91951 109.06979,54.82993 0.25316,44.30185 -78.25857,37.53686 -101.00767,51.91312 -24.75006,15.59535 -13.63364,48.603 -13.63364,48.603 0,0 -14.95588,-30.92104 -4.48993,-51.09378 l 0,-96.74716 c -4.30158,-0.27602 -7.9057,-0.0116 -10.1598,0.65547 -0.64423,-1.40312 3.32805,-3.56684 10.1598,-5.63703 l 0,-18.61532 z m 10.06145,25.13722 0,84.42435 c 10.62677,-7.22263 28.86071,-15.93312 32.38014,-32.60956 7.08444,-33.5369 -14.23158,-47.4444 -32.38014,-51.81479 z" id="path4185-9"/>
    </g>
    <g id="g4894" transform="translate(55.636831,166.11186)">
      <path inkscape:connector-curvature="0" id="path4724-7-8" d="m 649.82081,334.51801 c -53.72856,0.16985 -102.57334,45.41964 -106.71039,99.00853 -4.64543,45.7289 21.86052,92.99865 64.37363,111.07213 39.92507,18.04198 90.53084,10.01792 121.5501,-21.33847 30.92277,-29.7073 42.42888,-78.54294 26.05865,-118.63037 -16.30681,-42.14734 -59.59281,-72.15667 -105.27199,-70.11182 z" style="fill:#32292f;fill-opacity:1;stroke:none"/>
      <path transform="matrix(0.89184641,0,0,0.89184641,939.83905,624.72394)" d="m -210.11172,-201.23712 c 0,61.92599 -50.20093,112.126929 -112.12693,112.126929 -61.92599,0 -112.12693,-50.200939 -112.12693,-112.126929 0,-61.926 50.20094,-112.12693 112.12693,-112.12693 61.926,0 112.12693,50.20093 112.12693,112.12693 z" sodipodi:ry="112.12693" sodipodi:rx="112.12693" sodipodi:cy="-201.23712" sodipodi:cx="-322.23865" id="path4195-7-1" style="fill:#bf1eb6;fill-opacity:1;fill-rule:evenodd;stroke:none" sodipodi:type="arc"/>
      <path inkscape:connector-curvature="0" style="fill:#f9f9f9;fill-opacity:1" d="m 652.54096,340.75578 c -57.16653,0 -103.4985,46.36483 -103.4985,103.53126 0,57.16642 46.33197,103.49851 103.4985,103.49851 57.16655,0 103.49852,-46.33209 103.49852,-103.49851 0,-57.16643 -46.33197,-103.53126 -103.49852,-103.53126 z m -44.70287,19.04135 10.06145,0 0,16.09177 c 36.29712,-7.52165 108.67895,-7.91951 109.06979,54.82993 0.25316,44.30185 -78.25857,37.53686 -101.00767,51.91312 -24.75006,15.59535 -13.63364,48.603 -13.63364,48.603 0,0 -14.95588,-30.92104 -4.48993,-51.09378 l 0,-96.74716 c -4.30158,-0.27602 -7.9057,-0.0116 -10.1598,0.65547 -0.64423,-1.40312 3.32805,-3.56684 10.1598,-5.63703 l 0,-18.61532 z m 10.06145,25.13722 0,84.42435 c 10.62677,-7.22263 28.86071,-15.93312 32.38014,-32.60956 7.08444,-33.5369 -14.23158,-47.4444 -32.38014,-51.81479 z" id="path4185-9-0"/>
    </g>
    <path style="fill:#32292f;fill-opacity:1;stroke:none" d="m 432.26228,787.90544 c -53.72857,0.16985 -102.57335,45.41964 -106.7104,99.00853 -4.64543,45.72891 21.86052,92.99866 64.37363,111.07214 39.92508,18.04199 90.53085,10.01789 121.55011,-21.33847 30.92277,-29.7073 42.42888,-78.54294 26.05865,-118.63038 -16.30681,-42.14734 -59.59281,-72.15667 -105.27199,-70.11182 z" id="path4724-76" inkscape:connector-curvature="0"/>
    <path sodipodi:type="arc" style="fill:#1ebf23;fill-opacity:1;fill-rule:evenodd;stroke:none" id="path4195-7-2" sodipodi:cx="-322.23865" sodipodi:cy="-201.23712" sodipodi:rx="112.12693" sodipodi:ry="112.12693" d="m -210.11172,-201.23712 a 112.12693,112.12693 0 1 1 -224.25386,0 112.12693,112.12693 0 1 1 224.25386,0 z" transform="matrix(0.468423,0,0,0.19815271,618.12113,897.18506)"/>
    <path sodipodi:type="arc" style="fill:#bf1eb6;fill-opacity:1;fill-rule:evenodd;stroke:none" id="path4195-7-1-9" sodipodi:cx="-322.23865" sodipodi:cy="-201.23712" sodipodi:rx="112.12693" sodipodi:ry="112.12693" d="m -210.11172,-201.23712 a 112.12693,112.12693 0 1 1 -224.25386,0 112.12693,112.12693 0 1 1 224.25386,0 z" transform="matrix(0.45040496,0,0,0.22517974,613.24397,929.99959)"/>
    <path sodipodi:type="arc" style="fill:#ff6600;fill-opacity:1;fill-rule:evenodd;stroke:none" id="path4195-0" sodipodi:cx="-322.23865" sodipodi:cy="-201.23712" sodipodi:rx="112.12693" sodipodi:ry="112.12693" d="m -210.11172,-201.23712 a 112.12693,112.12693 0 1 1 -224.25386,0 112.12693,112.12693 0 1 1 224.25386,0 z" transform="matrix(0.53148604,0,0,0.15310765,644.54428,937.08424)"/>
    <path id="path4185-1" d="m 434.98243,794.14321 c -57.16654,0 -103.49851,46.36483 -103.49851,103.53127 0,57.16642 46.33197,103.49852 103.49851,103.49852 57.16655,0 103.49852,-46.3321 103.49852,-103.49852 0,-57.16644 -46.33197,-103.53127 -103.49852,-103.53127 z m -44.70288,19.04135 10.06145,0 0,16.09177 c 36.29713,-7.52165 108.67896,-7.91951 109.0698,54.82993 0.25316,44.30186 -78.25857,37.53687 -101.00768,51.91313 -24.75006,15.59535 -13.63364,48.603 -13.63364,48.603 0,0 -14.95588,-30.92104 -4.48993,-51.09378 l 0,-96.74717 c -4.30158,-0.27602 -7.9057,-0.0116 -10.1598,0.65547 -0.64423,-1.40312 3.32805,-3.56684 10.1598,-5.63703 l 0,-18.61532 z m 10.06145,25.13722 0,84.42436 c 10.62677,-7.22263 28.86072,-15.93312 32.38015,-32.60956 7.08444,-33.53691 -14.23159,-47.44441 -32.38015,-51.8148 z" style="fill:#f9f9f9;fill-opacity:1" inkscape:connector-curvature="0"/>
    <text xml:space="preserve" style="font-size:72px;font-style:italic;font-variant:normal;font-weight:normal;font-stretch:normal;text-align:start;line-height:125%;letter-spacing:0px;word-spacing:0px;writing-mode:lr-tb;text-anchor:start;fill:#000000;fill-opacity:1;stroke:none;font-family:Chancery Uralic;-inkscape-font-specification:Chancery Uralic Italic" x="49.166489" y="258.78259" id="text4916" sodipodi:linespacing="125%"><tspan sodipodi:role="line" id="tspan4918" x="49.166489" y="258.78259">Plenary</tspan></text>
    <text xml:space="preserve" style="font-size:72px;font-style:italic;font-variant:normal;font-weight:normal;font-stretch:normal;text-align:start;line-height:125%;letter-spacing:0px;word-spacing:0px;writing-mode:lr-tb;text-anchor:start;fill:#000000;fill-opacity:1;stroke:none;font-family:Chancery Uralic;-inkscape-font-specification:Chancery Uralic Italic" x="49.166489" y="913.3338" id="text4916-2" sodipodi:linespacing="125%"><tspan sodipodi:role="line" id="tspan4918-0" x="49.166489" y="913.3338">Plenary</tspan></text>
    <text xml:space="preserve" style="font-size:72px;font-style:italic;font-variant:normal;font-weight:normal;font-stretch:normal;text-align:start;line-height:125%;letter-spacing:0px;word-spacing:0px;writing-mode:lr-tb;text-anchor:start;fill:#000000;fill-opacity:1;stroke:none;font-family:Chancery Uralic;-inkscape-font-specification:Chancery Uralic Italic" x="293.85995" y="466.43292" id="text4916-2-6" sodipodi:linespacing="125%"><tspan sodipodi:role="line" id="tspan4962" x="293.85995" y="466.43292">Sub Groups</tspan></text>
  </g>
</svg>